<?xml version="1.0" encoding="UTF-8"?>
<svg id="Ebene_1" data-name="Ebene 1" xmlns="http://www.w3.org/2000/svg" viewBox="0 0 150 150">
  <defs>
    <style>
      .cls-1 {
        stroke-width: 3.76px;
      }

      .cls-1, .cls-2 {
        fill: none;
        stroke: #fff;
        stroke-linecap: round;
        stroke-linejoin: round;
      }

      .cls-2 {
        stroke-width: 2.48px;
      }

      .cls-3, .cls-4, .cls-5 {
        stroke-width: 0px;
      }

      .cls-4 {
        fill: #009cd9;
      }

      .cls-5 {
        fill: #fff;
      }
    </style>
  </defs>
  <rect class="cls-4" x=".34" width="150.27" height="150.27" rx="33.18" ry="33.18"/>
  <g>
    <g>
      <path class="cls-1" d="M111.83,48.24c3.07,0,5.59,2.46,5.59,5.47v45.93c0,3.01-2.52,5.47-5.59,5.47H39.11c-3.07,0-5.59-2.46-5.59-5.47v-45.93c0-3.01,2.52-5.47,5.59-5.47h72.72Z"/>
      <g>
        <line class="cls-1" x1="33.52" y1="61.01" x2="117.43" y2="61.01"/>
        <line class="cls-1" x1="33.52" y1="64.65" x2="117.43" y2="64.65"/>
      </g>
    </g>
    <g>
      <path class="cls-5" d="M43.05,79.97c.6,0,1.02.42,1.02,1v8.46c0,.58-.42,1-1.02,1s-1-.42-1-1v-8.46c0-.58.42-1,1-1Z"/>
      <path class="cls-5" d="M47.48,80.03h3.22c1.96,0,3.43,1.18,3.43,2.86,0,1.21-.86,1.88-1.55,2.17,1.02.31,1.84,1.12,1.84,2.41,0,1.55-1.23,2.91-3.48,2.91h-3.46c-.55,0-.94-.4-.94-.95v-8.46c0-.55.39-.94.94-.94ZM48.55,84.3h1.97c.87,0,1.5-.52,1.5-1.25s-.65-1.25-1.52-1.25h-1.96v2.49ZM48.55,88.59h2.18c.91,0,1.57-.55,1.57-1.31s-.65-1.31-1.57-1.31h-2.18v2.62Z"/>
      <path class="cls-5" d="M64.47,90.43c-.58.02-.99-.32-1.24-1l-.55-1.37h-4.61l-.57,1.39c-.26.66-.53,1-1.17.99-.74,0-1.1-.63-.74-1.49l3.22-7.68c.39-.94.79-1.31,1.62-1.31s1.23.37,1.62,1.31l3.2,7.65c.37.89-.02,1.52-.78,1.52ZM61.95,86.26l-1.59-3.95-1.59,3.95h3.17Z"/>
      <path class="cls-5" d="M76.3,80.97v8.22c0,.78-.44,1.26-1.12,1.26-.78,0-1.16-.42-1.65-1.1l-4.26-5.86v5.94c0,.58-.42,1-1,1s-1.02-.42-1.02-1v-8.2c0-.81.45-1.28,1.18-1.28s1.08.39,1.54,1.08l4.3,6v-6.07c0-.58.42-1,1-1s1.02.42,1.02,1Z"/>
    </g>
  </g>
  <g>
    <path class="cls-3" d="M141.19,109.5c0,15.01-12.17,27.18-27.18,27.18s-27.18-12.17-27.18-27.18,12.17-27.18,27.18-27.18,27.18,12.17,27.18,27.18"/>
    <g>
      <path class="cls-2" d="M121.73,100.25l7.76-.54-.54-7.76M128.06,98.5s-1.64-1.43-2.14-1.86c-7.28-6.33-18.2-5.65-24.53,1.64-6.33,7.28-5.56,18.32,1.72,24.66,7.28,6.33,18.32,5.56,24.66-1.72"/>
      <g>
        <line class="cls-2" x1="111.75" y1="102.24" x2="111.75" y2="111.56"/>
        <line class="cls-2" x1="119.6" y1="114.87" x2="111.75" y2="111.56"/>
      </g>
    </g>
  </g>
</svg>